<?xml version="1.0"?>
<svg width="1280" height="1280" xmlns="http://www.w3.org/2000/svg" xmlns:svg="http://www.w3.org/2000/svg" preserveAspectRatio="xMidYMid meet">
 <metadata>Created by potrace 1.15, written by Peter Selinger 2001-2017</metadata>
 <g class="layer">
  <title>Layer 1</title>
  <g fill="#000000" id="svg_1" transform="translate(0 1280) scale(0.1 -0.1)">
   <path d="m7556,10480c-384,-61 -686,-316 -799,-676c-88,-278 -46,-583 115,-832c40,-62 200,-228 806,-834l756,-758l-3289,-3l-3290,-2l-83,-23c-412,-110 -696,-437 -742,-850c-50,-453 224,-878 662,-1028c166,-57 -15,-54 3503,-54l3240,0l-756,-757c-470,-471 -772,-781 -796,-818c-266,-399 -218,-911 117,-1245c186,-187 417,-282 685,-283c169,-1 295,28 445,103c168,85 66,-15 2024,1955l1441,1450l52,95c196,364 159,787 -98,1104c-32,39 -772,785 -1646,1657c-1369,1367 -1600,1594 -1674,1643c-157,102 -315,153 -504,160c-60,3 -137,1 -169,-4z" fill="#ffffff" id="svg_2"/>
  </g>
 </g>
</svg>